<svg width="205" height="34" viewBox="0 0 205 34" fill="none" xmlns="http://www.w3.org/2000/svg">
<g clip-path="url(#clip0_1108_9)">
<rect width="205" height="34" fill="white"/>
<path d="M51.881 15.755L63.203 4.1H69.567L58.837 14.83L70.27 30H63.906L55.359 18.012L51.881 21.379V30H47.145V4.1H51.881V15.755ZM77.302 24.561L75.415 30H70.346L80.114 4.1H84.85L94.618 30H89.549L87.662 24.561H77.302ZM78.56 20.639H86.404L82.482 9.132L78.56 20.639ZM96.5212 21.675H101.22C101.245 22.2423 101.356 22.7973 101.553 23.34C101.775 23.858 102.108 24.4007 102.552 24.968C103.021 25.5353 103.712 25.9917 104.624 26.337C105.562 26.6823 106.672 26.855 107.954 26.855C111.605 26.855 113.43 25.56 113.43 22.97C113.43 22.23 113.27 21.601 112.949 21.083C112.653 20.565 112.222 20.1703 111.654 19.899C111.087 19.6277 110.606 19.4303 110.211 19.307C109.841 19.1837 109.36 19.0727 108.768 18.974C107.461 18.752 106.45 18.5423 105.734 18.345C104.476 18.049 103.44 17.7653 102.626 17.494C101.837 17.198 101.023 16.7787 100.184 16.236C99.3455 15.6933 98.7165 14.978 98.2972 14.09C97.9025 13.202 97.7052 12.129 97.7052 10.871C97.7052 9.71167 97.8902 8.688 98.2602 7.8C98.6549 6.88733 99.1975 6.172 99.8882 5.654C100.579 5.136 101.27 4.70433 101.96 4.359C102.676 4.01367 103.465 3.77933 104.328 3.656C105.192 3.508 105.87 3.42166 106.363 3.397C106.857 3.34767 107.362 3.323 107.88 3.323C111.087 3.323 113.517 4.05067 115.169 5.506C116.822 6.93667 117.735 8.74967 117.907 10.945H113.208C112.888 8.47833 111.075 7.245 107.769 7.245C107.375 7.245 106.992 7.26967 106.622 7.319C106.277 7.36833 105.759 7.49167 105.068 7.689C104.378 7.86167 103.823 8.207 103.403 8.725C102.984 9.243 102.774 9.89667 102.774 10.686C102.774 11.1053 102.836 11.4877 102.959 11.833C103.107 12.1783 103.342 12.4743 103.662 12.721C103.983 12.9677 104.279 13.1773 104.55 13.35C104.846 13.498 105.253 13.646 105.771 13.794C106.314 13.9173 106.758 14.016 107.103 14.09C107.449 14.164 107.93 14.2503 108.546 14.349C110.248 14.645 111.63 14.9533 112.69 15.274C113.751 15.5947 114.762 16.051 115.724 16.643C116.686 17.235 117.389 18.012 117.833 18.974C118.277 19.936 118.499 21.1077 118.499 22.489C118.499 28.0143 114.886 30.777 107.658 30.777C105.562 30.777 103.749 30.5057 102.219 29.963C100.715 29.4203 99.5675 28.6803 98.7782 27.743C98.0135 26.8057 97.4462 25.8437 97.0762 24.857C96.7309 23.8703 96.5459 22.8097 96.5212 21.675ZM123.664 4.1H133.987C134.974 4.1 135.85 4.137 136.614 4.211C137.404 4.285 138.279 4.48233 139.241 4.803C140.228 5.12366 141.042 5.56767 141.683 6.135C142.349 6.67767 142.904 7.467 143.348 8.503C143.817 9.51433 144.051 10.723 144.051 12.129C144.051 14.6697 143.25 16.6923 141.646 18.197C140.043 19.7017 137.478 20.454 133.95 20.454H128.4V30H123.664V4.1ZM128.4 8.022V16.532H133.913C134.604 16.532 135.196 16.495 135.689 16.421C136.183 16.3223 136.725 16.1497 137.317 15.903C137.909 15.6563 138.366 15.237 138.686 14.645C139.007 14.0283 139.167 13.2637 139.167 12.351C139.167 11.5617 139.032 10.8833 138.76 10.316C138.514 9.74867 138.218 9.32933 137.872 9.058C137.527 8.762 137.083 8.54 136.54 8.392C136.022 8.21933 135.578 8.12067 135.208 8.096C134.838 8.04667 134.419 8.022 133.95 8.022H128.4ZM158.517 3.397C158.986 3.34767 159.467 3.323 159.96 3.323C160.453 3.323 160.922 3.34767 161.366 3.397C161.835 3.42166 162.525 3.53266 163.438 3.73C164.351 3.90267 165.177 4.16167 165.917 4.507C166.657 4.82767 167.459 5.33333 168.322 6.024C169.21 6.71467 169.95 7.52867 170.542 8.466C171.134 9.37867 171.627 10.5873 172.022 12.092C172.441 13.572 172.651 15.2247 172.651 17.05C172.651 18.8753 172.441 20.5403 172.022 22.045C171.627 23.525 171.134 24.7337 170.542 25.671C169.95 26.5837 169.21 27.3853 168.322 28.076C167.459 28.7667 166.657 29.2847 165.917 29.63C165.177 29.9507 164.351 30.1973 163.438 30.37C162.525 30.5673 161.835 30.6783 161.366 30.703C160.922 30.7523 160.453 30.777 159.96 30.777C159.467 30.777 158.986 30.7523 158.517 30.703C158.073 30.6783 157.395 30.5673 156.482 30.37C155.569 30.1973 154.743 29.9507 154.003 29.63C153.263 29.2847 152.449 28.7667 151.561 28.076C150.698 27.3853 149.97 26.5837 149.378 25.671C148.786 24.7337 148.28 23.525 147.861 22.045C147.466 20.5403 147.269 18.8753 147.269 17.05C147.269 15.2247 147.466 13.572 147.861 12.092C148.28 10.5873 148.786 9.37867 149.378 8.466C149.97 7.52867 150.698 6.71467 151.561 6.024C152.449 5.33333 153.263 4.82767 154.003 4.507C154.743 4.16167 155.569 3.90267 156.482 3.73C157.395 3.53266 158.073 3.42166 158.517 3.397ZM163.808 8.207C162.747 7.56567 161.465 7.245 159.96 7.245C158.455 7.245 157.173 7.56567 156.112 8.207C155.051 8.82367 154.262 9.65 153.744 10.686C153.226 11.722 152.856 12.758 152.634 13.794C152.437 14.83 152.338 15.9153 152.338 17.05C152.338 18.1847 152.437 19.27 152.634 20.306C152.856 21.342 153.226 22.378 153.744 23.414C154.262 24.45 155.051 25.2887 156.112 25.93C157.173 26.5467 158.455 26.855 159.96 26.855C161.465 26.855 162.747 26.5467 163.808 25.93C164.869 25.2887 165.658 24.45 166.176 23.414C166.694 22.378 167.052 21.342 167.249 20.306C167.471 19.27 167.582 18.1847 167.582 17.05C167.582 15.9153 167.471 14.83 167.249 13.794C167.052 12.758 166.694 11.722 166.176 10.686C165.658 9.65 164.869 8.82367 163.808 8.207ZM182.581 11.611V30H177.845V4.1H182.877L195.309 22.489V4.1H200.045V30H195.013L182.581 11.611Z" fill="#005353"/>
<path d="M47.0068 4L47 8.47143L52.0489 4.0077L47.0068 4Z" fill="white"/>
<path d="M12.3334 11.1752C10.6634 12.6759 5.41558 24.1831 3.00042 29.749L36.038 4.05038L21.5473 4.02826C17.6016 4.10349 13.7607 8.82422 12.3334 11.1752Z" fill="#022F66"/>
<path d="M28.0307 16.5597L22.1323 16.5506L38.9821 4.05487L43.711 4.06209L28.0307 16.5597Z" fill="#022F66"/>
<path d="M31.95 30.0757L6.01266 30.0361L21.6962 17.3032L27.9517 17.3127L31.95 30.0757Z" fill="#022F66"/>
</g>
<defs>
<clipPath id="clip0_1108_9">
<rect width="205" height="34" fill="white"/>
</clipPath>
</defs>
</svg>
